<?xml version="1.0" encoding="UTF-8" standalone="no"?>
<!-- Created with Inkscape (http://www.inkscape.org/) -->

<svg
   xmlns:dc="http://purl.org/dc/elements/1.1/"
   xmlns:cc="http://creativecommons.org/ns#"
   xmlns:rdf="http://www.w3.org/1999/02/22-rdf-syntax-ns#"
   xmlns:svg="http://www.w3.org/2000/svg"
   xmlns="http://www.w3.org/2000/svg"
   xmlns:sodipodi="http://sodipodi.sourceforge.net/DTD/sodipodi-0.dtd"
   xmlns:inkscape="http://www.inkscape.org/namespaces/inkscape"
   width="100mm"
   height="100mm"
   viewBox="0 0 100 100"
   version="1.1"
   id="svg8"
   inkscape:version="0.92.1 r15371"
   sodipodi:docname="BackArrow.svg"
   inkscape:export-filename="C:\Users\Eder\bitmap.png"
   inkscape:export-xdpi="342"
   inkscape:export-ydpi="342">
  <defs
     id="defs2" />
  <sodipodi:namedview
     id="base"
     pagecolor="#ffffff"
     bordercolor="#666666"
     borderopacity="1.0"
     inkscape:pageopacity="0.0"
     inkscape:pageshadow="2"
     inkscape:zoom="0.7"
     inkscape:cx="142.56897"
     inkscape:cy="296.23838"
     inkscape:document-units="mm"
     inkscape:current-layer="layer1"
     showgrid="false"
     inkscape:window-width="1366"
     inkscape:window-height="705"
     inkscape:window-x="-8"
     inkscape:window-y="-8"
     inkscape:window-maximized="1" />
  <metadata
     id="metadata5">
    <rdf:RDF>
      <cc:Work
         rdf:about="">
        <dc:format>image/svg+xml</dc:format>
        <dc:type
           rdf:resource="http://purl.org/dc/dcmitype/StillImage" />
        <dc:title></dc:title>
      </cc:Work>
    </rdf:RDF>
  </metadata>
  <g
     inkscape:label="Camada 1"
     inkscape:groupmode="layer"
     id="layer1"
     transform="translate(0,-197)">
    <rect
       style="opacity:1;fill:#000000;fill-opacity:1;stroke:none;stroke-width:0.26458332;stroke-linecap:round;stroke-linejoin:round;stroke-miterlimit:4;stroke-dasharray:none;stroke-dashoffset:0;stroke-opacity:1"
       id="rect4666"
       width="100"
       height="100"
       x="0"
       y="197" />
    <path
       style="opacity:1;fill:#19a1ff;fill-opacity:0.94117647;stroke:#000000;stroke-width:0.26458335;stroke-linecap:round;stroke-linejoin:round;stroke-miterlimit:4;stroke-dasharray:none;stroke-dashoffset:0;stroke-opacity:1"
       d="m 62.343161,203.53227 c 1.68633,0 3.37292,0.64637 4.66507,1.939 l 12.16399,12.1683 c 2.58431,2.58522 2.58431,6.74762 0,9.33284 l -20.02135,20.02788 20.02135,20.02845 c 2.58431,2.58522 2.58431,6.74763 0,9.33286 l -12.16399,12.16829 c -2.58431,2.58525 -6.745251,2.58525 -9.329564,0 L 32.992821,263.83532 20.828838,251.66702 c -1.695814,-1.69642 -2.278928,-4.07209 -1.749193,-6.23551 5.6e-5,-1.7e-4 -2.6e-5,-2.9e-4 0,-5.9e-4 0.27763,-1.13329 0.86084,-2.2081 1.749193,-3.09679 l 12.163983,-12.1683 24.685846,-24.69458 c 1.292156,-1.29262 2.978161,-1.939 4.664494,-1.939 z"
       id="rect4500"
       inkscape:connector-curvature="0" />
    <path
       style="opacity:1;fill:#0088e4;fill-opacity:0.94117647;stroke:none;stroke-width:0.26458338;stroke-linecap:round;stroke-linejoin:round;stroke-miterlimit:4;stroke-dasharray:none;stroke-dashoffset:0;stroke-opacity:1"
       d="m 59.150867,247.00029 20.021354,20.02845 c 2.58431,2.58522 2.58431,6.74763 0,9.33286 l -12.16399,12.16829 c -2.58431,2.58525 -6.745254,2.58525 -9.329564,0 l -24.68585,-24.69457 -12.16398,-12.1683 c -1.69581,-1.69643 -2.27893,-4.0721 -1.74919,-6.23551 v -5.3e-4 l 0.0483,1.56931 z"
       id="rect4500-3"
       inkscape:connector-curvature="0"
       sodipodi:nodetypes="ccccccccccc" />
  </g>
</svg>
